<svg width="20" height="25" viewBox="0 0 20 25" fill="none" xmlns="http://www.w3.org/2000/svg">
<path d="M6.72399 24.77C3.18484 24.7488 0.257324 17.2401 0.257324 13.4161C0.257324 7.16956 4.76596 5.80203 6.50356 5.80203C7.28662 5.80203 8.12277 6.12163 8.86026 6.40445C9.37599 6.60174 9.90936 6.8054 10.206 6.8054C10.3836 6.8054 10.802 6.63215 11.1714 6.48014C11.9593 6.15417 12.9396 5.74902 14.0812 5.74902C14.0833 5.74902 14.086 5.74902 14.088 5.74902C14.9405 5.74902 17.5251 5.94346 19.079 8.36881L19.443 8.9373L18.9192 9.34814C18.1708 9.93503 16.8053 11.0056 16.8053 13.1262C16.8053 15.6378 18.3517 16.6037 19.0947 17.0683C19.4226 17.2733 19.7621 17.4848 19.7621 17.9472C19.7621 18.2492 17.4435 24.7325 14.0764 24.7325C13.2526 24.7325 12.6702 24.4752 12.1565 24.2482C11.6367 24.0184 11.1884 23.8204 10.4475 23.8204C10.0719 23.8204 9.59702 24.0049 9.09425 24.2008C8.40719 24.4673 7.62952 24.77 6.74711 24.77H6.72399Z" fill="url(#paint0_linear_1385_7208)"/>
<path d="M14.8833 0.154297C14.9683 3.54037 12.7757 5.88947 10.5857 5.74214C10.2248 3.03994 12.7754 0.154297 14.8833 0.154297Z" fill="#ECEFF1"/>
<defs>
<linearGradient id="paint0_linear_1385_7208" x1="10.0097" y1="5.74902" x2="10.0097" y2="24.77" gradientUnits="userSpaceOnUse">
<stop stop-color="white"/>
<stop offset="1" stop-color="#90A4AE"/>
</linearGradient>
</defs>
</svg>
